<svg viewBox="0 0 550 620" xmlns="http://www.w3.org/2000/svg">

  <rect width="550" height="620" fill="#12141A" rx="8"/>

  <rect x="50" y="60" width="450" height="500" fill="#1A1D26" rx="8" stroke="#333C4E" stroke-width="1.5"/>
  <line x1="90" y1="90" x2="90" y2="480" stroke="#FF3D00" stroke-width="3"/>
  <line x1="460" y1="90" x2="460" y2="480" stroke="#FF3D00" stroke-width="3"/>
  <g fill="#FFD700">
    <rect x="105" y="120" width="340" height="12" rx="2"/><rect x="105" y="144" width="340" height="12" rx="2"/><rect x="105" y="168" width="340" height="12" rx="2"/><rect x="105" y="192" width="340" height="12" rx="2"/><rect x="105" y="216" width="340" height="12" rx="2"/><rect x="105" y="240" width="340" height="12" rx="2"/><rect x="105" y="264" width="340" height="12" rx="2"/><rect x="105" y="288" width="340" height="12" rx="2"/>
    <!-- Last line forced to stretch edge to edge with huge gaps -->
    <rect x="105" y="312" width="70" height="12" rx="2" fill="#FF3D00"/>
    <rect x="235" y="312" width="80" height="12" rx="2" fill="#FF3D00"/>
    <rect x="375" y="312" width="70" height="12" rx="2" fill="#FF3D00"/>
  </g>
  <text x="275" y="370" fill="#FF3D00" font-size="12" font-weight="bold" font-family="Montserrat" text-anchor="middle">FORCED FULL-WIDTH LAST LINE</text>
    <rect x="185" y="480" width="180" height="28" rx="5" fill="#FF3D00"/>
  <text x="275.0" y="497.36" fill="#FFFFFF" font-size="11" font-weight="900" font-family="PingFang SC, -apple-system, sans-serif" text-anchor="middle">末行强制满宽两端对齐</text>

</svg>